<svg width="82" height="78" viewBox="0 0 82 78" fill="none" xmlns="http://www.w3.org/2000/svg">
<path d="M56.8173 54.2588C59.8434 53.9464 62.1391 51.3428 62.0348 48.2185C61.9304 45.0942 59.3217 42.5947 56.1912 42.5947H55.9825C52.7477 42.6989 50.2434 45.4066 50.3477 48.6351C50.4521 50.1972 51.0782 51.5511 52.0173 52.4884C48.4695 59.466 43.0433 64.569 34.9042 68.8389C29.3737 71.755 23.6345 72.7964 17.8954 72.0674C13.1997 71.4425 9.54749 69.3596 7.25182 65.9229C3.91267 60.8199 3.59963 55.3003 6.41704 49.7807C8.39966 45.8232 11.5301 42.9072 13.5127 41.4492C13.0953 40.0953 12.4692 37.8041 12.1562 36.1378C-2.97432 47.0729 -1.4091 61.8613 3.18223 68.8389C6.62573 74.0461 13.6171 77.2746 21.3389 77.2746C23.4258 77.2746 25.5128 77.0663 27.5998 76.5456C40.9564 73.942 51.0782 66.0271 56.8173 54.2588ZM75.1827 41.345C67.2522 32.0762 55.5652 26.9732 42.2086 26.9732H40.539C39.5998 25.0986 37.6172 23.8489 35.4259 23.8489H35.2172C31.9824 23.953 29.478 26.6608 29.5824 29.8892C29.6867 33.0135 32.2955 35.513 35.4259 35.513H35.6346C37.9303 35.4088 39.9129 33.9508 40.7477 31.9721H42.6259C50.5564 31.9721 58.0695 34.2633 64.8522 38.7414C70.0696 42.1782 73.8261 46.6563 75.9131 52.0718C77.687 56.4458 77.5827 60.7157 75.7044 64.3608C72.7826 69.8804 67.8783 72.9005 61.4087 72.9005C57.2347 72.9005 53.2695 71.6508 51.1825 70.7135C50.0347 71.755 47.9477 73.4213 46.4868 74.4627C50.9738 76.5456 55.5652 77.6911 59.9478 77.6911C69.9652 77.6911 77.374 72.1715 80.1914 66.6519C83.2175 60.6116 83.0088 50.1972 75.1827 41.345ZM22.1737 56.0293C22.278 59.1536 24.8867 61.653 28.0172 61.653H28.2259C31.4607 61.5489 33.965 58.8411 33.8607 55.6127C33.7563 52.4884 31.1476 49.9889 28.0172 49.9889H27.8085C27.5998 49.9889 27.2867 49.9889 27.078 50.0931C22.7997 43.0113 21.0258 35.3047 21.6519 26.9732C22.0693 20.7246 24.1563 15.3091 27.8085 10.8309C30.8346 6.97762 36.6781 5.10304 40.6433 4.99889C51.7043 4.79061 56.3999 18.5376 56.713 24.0572C58.0695 24.3696 60.3652 25.0986 61.9304 25.6193C60.6782 8.74806 50.2434 0 40.2259 0C30.8346 0 22.1737 6.76934 18.7302 16.7671C13.9301 30.0975 17.0606 42.9072 22.9041 53.0091C22.3823 53.7381 22.0693 54.8837 22.1737 56.0293Z" fill="#FAFAFF"/>
</svg>
