<svg width="70" height="80" viewBox="0 0 70 80" fill="none" xmlns="http://www.w3.org/2000/svg">
<path d="M21.5113 48.8917C20.2398 49.6853 18.3241 50.9717 16.8421 52.3705C14.4091 54.6645 13.8999 57.8466 15.1834 58.59C16.3707 59.2771 19.1425 58.4595 21.1263 56.299C23.2083 54.0309 24.0669 51.1557 23.1801 47.8917C23.0759 47.9537 22.9737 48.0159 22.8733 48.0738L22.8755 48.0784L22.741 48.1543C22.2234 48.4628 21.8004 48.7175 21.5113 48.8914V48.8917ZM57.2417 47.8617C56.5214 49.4246 56.4854 49.9272 56.7041 50.0839C57.7492 49.709 59.4781 48.8057 59.4918 46.3847C59.494 46.0222 59.4139 45.6334 59.2854 45.2267C58.1681 46.2144 57.5241 47.2485 57.2417 47.8617ZM68.4554 43.1371C65.6636 42.8123 63.4851 43.2032 61.7944 43.9064C62.1075 44.72 62.3481 45.5671 62.382 46.4208C62.4605 48.2944 61.1688 49.6809 59.8227 50.6711C59.0365 51.2482 58.2001 51.6329 57.4979 51.8652C56.9365 52.1013 56.1903 52.3457 55.6607 52.2378C54.4931 52.0009 53.8716 50.9657 54.6659 48.6812C55.0949 47.4451 56.3325 45.5635 58.3302 43.9425C57.875 43.0066 57.3675 42.0533 57.1088 41.177C56.5991 39.45 56.4452 38.406 56.4452 38.406C56.4452 38.406 54.7985 41.8147 52.6742 44.9144C52.5517 45.0945 52.4295 45.2709 52.307 45.447C52.7242 46.4153 53.0529 47.4391 53.0975 48.471C53.1757 50.3446 52.3633 51.7612 51.0152 52.7489C50.2854 53.2862 49.507 53.6572 48.8389 53.8933C48.4118 54.0792 47.5431 54.3858 46.3077 54.4683C45.6321 54.5144 44.9821 54.4726 44.6193 54.198C44.1197 53.8212 44.0595 53.356 44.3182 52.7211C44.537 52.1816 46.1735 50.3165 47.5456 48.6834C47.9111 48.2462 48.2655 47.7999 48.6084 47.3449L48.6005 47.3268C48.6005 47.3268 48.8491 47.0066 49.2524 46.4475C48.7509 45.3692 48.1152 44.2471 47.8163 43.2294C47.3066 41.5021 47.1524 40.4582 47.1524 40.4582C47.1524 40.4582 45.4833 44.7303 43.7445 48.1404C42.3989 50.7817 41.5002 52.3823 41.0952 53.0839L41.0911 53.112C41.0911 53.112 41.0307 53.2144 40.9265 53.3746L40.8486 53.5046L40.8464 53.4925C40.3949 54.1581 39.3821 55.462 38.3753 55.462C35.6114 55.462 36.6261 49.8576 36.6261 49.8576C36.6261 49.8576 35.8181 51.9337 34.9073 53.715C34.1655 55.1674 33.4895 56.3981 32.0113 56.3981C31.5861 56.3981 30.9121 56.3861 30.3524 55.8548C29.0828 54.6506 28.1121 51.5927 28.3024 49.2245C28.4648 47.2108 28.7757 45.8158 29.2009 44.6523C28.3511 45.1139 27.5087 45.5889 26.6738 46.0771L25.3017 46.8843L25.346 46.9646C26.4811 49.1568 26.784 53.9597 24.3089 57.6462C21.834 61.335 17.2268 63.5793 12.7381 62.3331C11.2897 61.9304 9.10164 58.9389 10.9889 54.7691C12.6536 51.0918 19.3066 47.6157 21.0599 46.7481L21.5411 46.4833C18.0455 43.4298 9.31629 39.3102 8.09293 32.9823C7.74785 31.201 8.5843 26.9409 13.8231 22.0441C18.2295 17.9261 24.3592 14.7722 30.0215 12.7623C39.5344 9.38643 49.5854 11.3777 51.1317 17.4334C52.652 23.3886 47.4775 30.512 40.8505 33.0727C34.9336 35.3588 30.0415 34.9963 28.0317 34.3372C25.7471 33.5879 24.4073 32.0828 24.0805 31.2332C23.952 30.9005 23.7311 30.3416 24.0805 30.1494C24.2949 30.0309 24.3811 30.0593 24.9547 30.6924C25.5005 31.2936 27.6946 32.9065 31.8626 32.4396C42.8001 31.2155 49.3886 22.7252 47.3066 18.1565C45.8486 14.9589 37.4186 13.5161 26.8863 18.7599C14.0295 25.1595 13.3317 30.4355 13.2215 32.4394C12.9205 37.9518 20.0307 40.8513 23.8779 44.9507L24.0261 45.1131C24.7461 44.7164 25.5065 44.2976 26.2525 43.889C27.7919 43.0447 29.3324 42.2022 30.8738 41.3615C32.2279 39.3968 34.9754 37.2283 36.9592 37.2283C40.1302 37.2283 39.0411 41.7787 39.0411 41.7787C39.0411 41.7787 39.1054 41.5706 39.1915 41.5685C39.2818 41.5663 39.6309 40.969 40.6098 41.3255C41.6166 41.6946 41.3878 42.4 41.3941 42.4721C41.4061 42.6119 40.2046 46.6575 39.7053 49.2526C39.4663 50.4909 39.6047 51.3929 39.6752 51.3929C39.7734 51.3929 39.9741 51.0779 40.1606 50.7396L40.1565 50.7295C40.1565 50.7295 40.2968 50.4729 40.5316 50.0123L40.5779 49.916L40.5798 49.9203C40.9685 49.1545 41.3403 48.3802 41.6948 47.5979C42.5753 45.6605 45.9348 38.18 46.2197 37.3528C46.5043 36.5253 46.6528 35.6695 46.7934 35.3026C46.9317 34.9359 48.1193 34.6594 49.507 34.6695C50.8949 34.6796 51.0357 35.2709 51.0453 35.3929C51.0554 35.515 50.3855 37.1565 50.231 38.3165C50.0787 39.4767 50.2253 40.0555 50.3516 41.0296C50.4339 41.6665 50.8329 42.4743 51.3045 43.3896C52.7406 41.0451 55.2675 36.5611 55.5103 35.3048C55.6765 34.4454 55.9434 33.6217 56.0839 33.2545C56.2242 32.8879 57.4098 32.6116 58.7975 32.6214C60.1855 32.6318 60.3258 33.2229 60.3359 33.3449C60.346 33.4672 59.6739 35.1085 59.5216 36.2687C59.369 37.4268 59.5159 38.0077 59.6419 38.9818C59.7505 39.815 60.3961 40.9351 61.0362 42.2092C62.7829 41.3498 64.8389 40.7729 67.2459 40.7609C68.2426 40.7549 69.4001 40.8548 69.9978 41.041V21.8718C69.9978 20.5194 69.3036 19.2728 68.1305 18.5977L36.8091 0.523223C36.2352 0.19142 35.5838 0.0166931 34.9207 0.0166931C34.2576 0.0166931 33.6062 0.19142 33.0323 0.523223L1.7973 18.589C0.625898 19.2644 0 20.5125 0 21.8628V58.0271C0 59.3773 0.629727 60.6258 1.79922 61.3009L33.0846 79.3803C33.6555 79.7131 34.3047 79.8885 34.9658 79.8885C35.6269 79.8885 36.2762 79.7131 36.8471 79.3803L68.1466 61.3006C69.3178 60.6236 70 59.3768 70 58.0268V43.4115C69.6027 43.2946 69.0211 43.2026 68.4554 43.1369V43.1371ZM34.7591 41.243C34.0873 41.9943 32.9421 43.9321 32.4064 45.5537C31.3414 48.7732 31.8027 52.0457 32.5568 52.2422C33.4373 52.4724 34.8816 48.1685 35.5731 46.4852C36.0065 45.4309 37.6914 40.7525 37.3223 40.1276C37.0341 39.6386 35.8403 40.0334 34.7591 41.2433V41.243ZM46.9443 52.0953C46.9443 52.0953 46.7318 52.2963 46.8237 52.352C46.9481 52.4262 47.2169 52.3301 47.5098 52.1775C48.3383 51.6572 50.1974 50.3585 50.2015 48.4369C50.2015 48.3806 50.1993 48.3266 50.1955 48.2684C49.8113 48.7715 49.4208 49.2698 49.0241 49.7631C48.4384 50.4906 46.9443 52.0953 46.9443 52.0953Z" fill="#FAFAFF"/>
</svg>
