<svg width="73" height="80" viewBox="0 0 73 80" fill="none" xmlns="http://www.w3.org/2000/svg">
<path d="M69.9149 61.6578L37.492 80V65.7173L57.6939 54.6015L69.9149 61.6578ZM72.1359 59.6493V21.2965L60.2762 28.1509V52.8055L72.1359 59.6493ZM2.22104 61.6578L34.644 80V65.7173L14.4314 54.6015L2.22104 61.6578ZM0 59.6493V21.2965L11.8597 28.1509V52.8055L0 59.6493ZM1.39213 18.8098L34.644 0V13.8045L13.3369 25.526L13.1668 25.6217L1.39213 18.8098ZM70.7438 18.8098L37.492 0V13.8045L58.7991 25.5154L58.9691 25.611L70.7438 18.8098Z" fill="#FAFAFF"/>
<path d="M34.644 62.4655L14.7078 51.4985V29.7875L34.644 41.2965V62.4655ZM37.492 62.4655L57.4282 51.5091V29.7875L37.492 41.2965V62.4655ZM16.0574 27.2795L36.068 16.2806L56.0785 27.2795L36.068 38.8311L16.0574 27.2795Z" fill="#FAFAFF"/>
</svg>
