<svg width="80" height="80" viewBox="0 0 80 80" fill="none" xmlns="http://www.w3.org/2000/svg">
<path d="M40 0C18 0 0 18 0 40.0001C0 62.0001 18 80.0002 40 80.0002C62 80.0002 80 62.0001 80 40.0001C80 18 62 0 40 0ZM17.7143 62.2858C11.7143 56.2858 8.57143 48.2858 8.57143 40.5715L39.7143 71.4287C31.7143 71.143 23.7143 68.2858 17.7143 62.2858ZM46.8571 70.5716L9.42857 33.1429C12.5714 19.1429 25.1429 8.57145 40 8.57145C50.5714 8.57145 59.7143 13.7143 65.4286 21.4286L61.1429 25.1429C56.2857 18.5715 48.5714 14.2857 40 14.2857C28.8571 14.2857 19.4286 21.4286 15.7143 31.4286L48.5714 64.2858C56.8571 61.4287 63.1429 54.2858 65.1429 45.7144H51.4286V40.0001H71.4286C71.4286 54.8572 60.8571 67.4287 46.8571 70.5716Z" fill="white"/>
</svg>
