<svg width="700" height="700" viewBox="0 0 700 700" fill="none" xmlns="http://www.w3.org/2000/svg">
<rect x="20" y="20" width="660" height="660" rx="80" stroke="white" stroke-width="40"/>
<path d="M349.968 99C208.624 99 94 214.072 94 356.024C94 469.56 167.344 565.88 269.104 599.896C281.904 602.264 286.576 594.328 286.576 587.512C286.576 581.4 286.352 565.24 286.224 543.8C215.024 559.32 199.984 509.336 199.984 509.336C188.368 479.64 171.568 471.736 171.568 471.736C148.304 455.8 173.296 456.12 173.296 456.12C198.992 457.944 212.496 482.616 212.496 482.616C235.344 521.88 272.432 510.552 287.024 503.96C289.328 487.352 295.952 476.024 303.28 469.592C246.448 463.096 186.672 441.048 186.672 342.584C186.672 314.52 196.656 291.576 213.04 273.592C210.384 267.096 201.616 240.952 215.536 205.592C215.536 205.592 237.04 198.68 285.936 231.928C306.352 226.232 328.24 223.384 350.032 223.288C371.76 223.416 393.68 226.232 414.128 231.96C462.992 198.712 484.464 205.624 484.464 205.624C498.416 241.016 489.648 267.128 487.024 273.624C503.44 291.608 513.328 314.552 513.328 342.616C513.328 441.336 453.488 463.064 396.464 469.432C405.648 477.368 413.84 493.048 413.84 517.016C413.84 551.384 413.52 579.096 413.52 587.512C413.52 594.392 418.128 602.392 431.12 599.864C532.72 565.816 606 469.528 606 356.024C606 214.072 491.376 99 349.968 99Z" fill="white"/>
</svg>
