<svg width="80" height="80" viewBox="0 0 80 80" fill="none" xmlns="http://www.w3.org/2000/svg">
<rect width="80" height="80" fill="#FAFAFF"/>
<path d="M33.37 34.615H42.2875V59.7275C42.2875 71.0025 36.855 75 28.245 75C26.0925 75 23.4275 74.6925 21.685 74.0775L22.71 66.8C23.94 67.21 25.58 67.5175 27.3225 67.5175C31.115 67.5175 33.4725 65.775 33.4725 59.7275L33.37 34.615Z" fill="#443D56"/>
<path d="M50.18 65.16C52.5375 66.39 56.33 67.62 60.1225 67.62C64.2225 67.62 66.375 65.8775 66.375 63.2125C66.375 60.7525 64.53 59.3175 59.7125 57.6775C53.1525 55.32 48.745 51.63 48.745 45.7875C48.745 39.125 54.485 34 63.8125 34C68.3225 34 71.6025 34.9225 73.96 36.05L71.91 43.225C70.3725 42.5075 67.5025 41.38 63.71 41.38C59.815 41.38 57.97 43.225 57.97 45.1725C57.97 47.735 60.1225 48.8625 65.35 50.81C72.32 53.3725 75.6 57.0625 75.6 62.7C75.6 69.3625 70.5775 75 59.61 75C55.1 75 50.59 73.77 48.335 72.54L50.18 65.16Z" fill="#443D56"/>
</svg>
