<svg width="86" height="80" viewBox="0 0 86 80" fill="none" xmlns="http://www.w3.org/2000/svg">
<path d="M42.633 47.8132C46.9798 47.8132 50.5035 44.2895 50.5035 39.9428C50.5035 35.596 46.9798 32.0723 42.633 32.0723C38.2863 32.0723 34.7626 35.596 34.7626 39.9428C34.7626 44.2895 38.2863 47.8132 42.633 47.8132Z" fill="white"/>
<path d="M43.0013 24C53.2705 24 62.8117 25.509 70.0043 28.043C78.6707 31.0973 84 35.7279 84 39.9211C84 44.2902 78.3522 49.2107 69.0461 52.3659C62.0103 54.7524 52.7497 56 43.0013 56C33.005 56 23.5422 54.8301 16.4255 52.34C7.42285 49.19 2 44.2074 2 39.9211C2 35.7615 7.08913 31.1672 15.6342 28.1181C22.8546 25.5427 32.6309 24 43.0013 24V24Z" stroke="white" stroke-width="4" stroke-miterlimit="10"/>
<path d="M28.705 31.9892C33.9823 22.8364 40.2011 15.0908 46.1053 9.95397C53.2188 3.76373 59.9891 1.33965 63.6382 3.44382C67.4407 5.63641 68.8218 13.1401 66.7853 23.0211C65.2456 30.491 61.573 39.368 56.561 48.0578C51.4242 56.966 45.5409 64.813 39.7174 69.9057C32.3489 76.3482 25.2223 78.6787 21.4926 76.5277C17.8721 74.4391 16.4884 67.5987 18.2232 58.4511C19.6902 50.7159 23.3731 41.2303 28.705 31.9892V31.9892Z" stroke="white" stroke-width="4" stroke-miterlimit="10"/>
<path d="M28.718 48.076C23.4251 38.931 19.8202 29.6769 18.3168 21.9963C16.5066 12.7422 17.7863 5.66502 21.4328 3.55565C25.2327 1.35526 32.4217 3.90678 39.9645 10.6042C45.6683 15.6682 51.5231 23.2838 56.5481 31.9657C61.7005 40.8661 65.5629 49.881 67.0637 57.468C68.965 67.0706 67.4252 74.4079 63.6981 76.5641C60.0802 78.6578 53.4634 76.4418 46.4044 70.3686C40.4431 65.237 34.0629 57.3093 28.718 48.076V48.076Z" stroke="white" stroke-width="4" stroke-miterlimit="10"/>
</svg>
