<svg width="309" height="356" viewBox="0 0 309 356" fill="none" xmlns="http://www.w3.org/2000/svg">
<g clip-path="url(#clip0)">
<path d="M2.27205 166.522C3.12657 164.067 1.90576 162.84 1.41742 160.659C0.929072 158.477 2.51621 151.659 2.51621 151.659C2.51621 151.659 7.64357 128.069 9.23061 123.433C9.9022 121.471 11.3608 120.122 12.8201 119.215C12.9191 118.614 13.062 118.225 13.2593 118.115C14.6733 117.325 18.1961 115.609 20.5438 115.135C20.9827 114.292 21.5033 113.506 22.0961 112.79C21.6841 111.906 21.493 110.915 21.543 109.92C21.6926 107.347 23.4369 105.042 23.21 102.476C23.0379 100.531 21.7644 98.9323 21.2729 97.0558C21.0668 96.213 21.0181 95.3319 21.1296 94.4672C21.2412 93.6025 21.5108 92.7726 21.9215 92.0291C21.5604 92.4582 21.1992 92.8873 20.8381 93.3164C20.3468 92.4941 20.1104 91.5146 20.1649 90.5279C20.2195 89.5411 20.5621 88.6016 21.1402 87.853C22.2836 86.4421 24.1958 85.913 25.083 84.2882C25.9945 82.6186 25.5053 80.3499 26.3673 78.6478C28.4791 74.478 33.8854 77.4339 37.1236 75.9785C38.4543 75.3804 39.4659 74.7222 40.9631 74.7695C42.2361 74.8511 43.4947 75.1136 44.7083 75.5507C46.4491 76.1134 47.9643 77.3264 49.0005 78.9871C48.8983 78.8571 48.7861 78.7373 48.6652 78.6291C47.8805 77.9423 46.5044 77.9995 46.09 79.0122C45.9911 79.2668 45.9496 79.5446 45.9691 79.8212C46.0372 81.0421 46.9921 81.9538 47.9409 82.5648C48.8897 83.1758 49.9572 83.687 50.5764 84.6959C51.5984 86.3609 50.9975 88.5955 50.997 90.6142C51.0054 91.8971 51.2712 93.1616 51.7751 94.3146C52.2789 95.4675 53.0078 96.4796 53.9081 97.2763L50.4632 95.7033C52.1081 98.9188 53.1879 102.456 53.6446 106.124L48.9869 101.826C50.7119 104.893 51.7604 108.373 52.046 111.98L48.3074 107.702C48.1372 108.036 48.0519 108.416 48.0607 108.8L48.4506 110.48C48.5883 110.813 48.7409 111.138 48.908 111.455C49.5096 112.608 50.1316 114.029 49.5689 115.207L49.5662 115.205C50.1585 117.431 51.0519 119.658 53.0396 120.74C50.835 120.998 48.5341 119.767 47.5385 117.807C47.3762 118.16 47.1801 118.492 46.9537 118.797C46.8896 118.886 46.8265 118.975 46.7633 119.064L47.3126 119.473L48.7849 120.57C48.7849 120.57 58.4294 122.751 57.819 126.842C57.7939 127.01 57.7638 127.211 57.7299 127.436L60.5048 132.705L64.5334 147.977C64.5334 147.977 66.6088 152.886 66.2426 154.931C65.8764 156.977 66.2426 157.795 66.2426 161.477C66.2426 165.158 67.8296 166.658 66.2426 169.658C64.6555 172.658 59.8944 181.385 59.8944 181.385L58.8486 182.261C58.8995 182.787 58.8817 183.319 58.7956 183.839C57.819 189.293 48.6629 241.518 48.6629 241.518C48.6629 241.518 53.302 282.834 43.9017 285.425C42.7227 285.75 41.5649 286.045 40.4402 286.307L39.0185 296.743L39.8731 309.969C39.8731 309.969 46.3434 326.332 34.5015 327.286C22.6596 328.241 28.0312 313.105 28.0312 313.105C27.4061 311.813 27.1505 310.338 27.2987 308.878C27.4194 307.664 28.4359 301.348 29.4327 295.273C24.9387 294.671 25.7796 289.344 26.3784 287.001C26.1192 286.832 25.9252 286.562 25.8337 286.243C25.6985 285.699 26.0134 283.559 26.5849 280.561C27.0504 277.58 27.8458 272.754 28.3884 269.485L25.4675 270.017L13.1372 189.293C13.1372 189.293 13.0559 188.008 13.0931 186.129C11.4072 185.155 9.66875 184.299 7.88777 183.566C3.85909 181.794 2.27206 175.249 0.929157 172.521C-0.413751 169.794 1.41744 168.976 2.27205 166.522ZM46.0509 115.125C45.6519 114.818 45.1843 114.641 44.7003 114.614C44.8047 115.248 45.7813 115.433 46.6001 115.765C46.4499 115.52 46.2643 115.303 46.0509 115.125V115.125ZM52.2032 155.75C51.2141 157.565 53.0049 162.483 54.6186 166.386C55.5434 165.496 56.5085 165.776 55.3773 163.249C54.606 161.648 54.1482 159.882 54.0345 158.068C54.0345 157.756 53.8913 155.465 52.6884 154.513C52.5618 154.942 52.3994 155.356 52.2032 155.75V155.75ZM55.9083 171.414C55.3486 171.16 54.501 170.769 53.3564 170.334C53.9048 171.138 54.5308 172.096 55.1605 173.141C55.3984 172.94 55.5902 172.678 55.7201 172.378C55.8501 172.078 55.9146 171.748 55.9083 171.414V171.414ZM16.3114 173.203C17.0536 172.323 17.6533 171.535 18.1471 170.83C17.2262 171.1 16.2888 171.392 15.3347 171.703C14.8592 171.783 14.3741 171.747 13.9123 171.598C13.8699 172.54 13.8697 173.885 13.8697 173.885L15.2069 174.919C15.5117 174.3 15.8826 173.723 16.3114 173.203V173.203ZM12.5228 168.474C12.537 168.488 12.5524 168.504 12.5671 168.519C12.6328 167.98 12.7419 167.448 12.8931 166.931C13.6932 164.113 14.1207 159.112 14.3481 154.845L12.0385 163.522C12.0385 163.522 11.9164 167.885 12.5228 168.474V168.474Z" fill="#ECEBFF"/>
<path d="M59.9446 132.634C59.9446 132.634 72.4693 108.59 72.8607 105.967C73.2521 103.344 79.5144 98.535 79.5144 98.535C81.6541 96.1452 85.1646 95.389 88.8591 95.4283C87.4678 94.1428 92.4353 93.2786 92.822 92.4147C93.2134 91.5404 94.3876 91.5404 95.9532 90.2289C97.5186 88.9175 101.426 90.0102 101.427 90.0103C102.015 88.6297 102.423 87.1627 102.641 85.6534C100.973 83.4493 100.059 80.6556 100.063 77.7697C100.063 77.7383 100.065 77.7074 100.065 77.6761C99.9653 77.8493 99.8657 78.0235 99.766 78.2031C99.0328 73.2977 97.7386 69.2201 100.205 64.7453C101.954 61.5737 104.691 59.2366 107.89 58.1838L110.239 60.2831L109.326 57.8345C110.094 57.7036 110.871 57.6534 111.648 57.6846L113.762 60.7203L112.887 57.7885C114.721 58.0431 116.488 58.7195 118.077 59.7749C119.665 60.8304 121.041 62.242 122.117 63.9208C124.807 68.2539 124.627 74.2771 121.981 78.644C121.972 78.6134 121.965 78.5835 121.956 78.553C121.84 80.5959 121.266 82.5735 120.287 84.3045C119.309 86.0356 117.958 87.4649 116.357 88.4616L115.692 94.4011C116.29 95.0215 117.058 95.3996 117.871 95.4749C119.046 95.4749 120.22 98.9722 120.22 98.9722C120.22 98.9722 120.885 99.3473 121.603 101.118C123.45 102.523 129.086 106.936 131.177 110.02C132.414 110.7 133.743 112.212 133.527 115.585C133.136 121.705 133.527 150.121 133.527 150.121C133.527 150.121 137.05 174.165 135.876 175.913C134.701 177.662 136.267 183.345 136.267 183.345L135.093 183.637V185.094C135.093 185.094 138.625 203.38 133.136 202.58C124.134 201.269 130.788 186.405 130.788 186.405V184.705L129.222 185.094C129.222 185.094 128.439 178.973 126.874 178.536C126.329 178.384 125.69 176.75 125.088 174.685C124.737 177.907 124.525 179.848 124.525 179.848L122.076 179.24L121.394 182.034C121.226 182.139 121.05 182.228 120.868 182.3L121.394 185.531C121.394 185.531 121.785 189.028 121.394 191.214C121.197 192.316 113.931 215.879 106.777 238.967L106.912 244.548C106.912 244.548 110.435 248.92 109.652 251.98C108.869 255.04 111.609 280.396 111.609 280.396L113.957 293.074L113.367 293.277L113.909 295.498C114.376 295.762 114.792 296.126 115.132 296.571C118.263 300.505 122.177 311.872 122.177 311.872C122.177 311.872 129.222 323.675 118.263 323.238C107.304 322.801 106.521 318.429 106.521 318.429C106.521 318.429 104.955 307.063 104.955 306.626C104.955 306.188 105.738 301.695 105.738 301.695L106.042 301.32L105.83 295.867L103.781 296.571C103.781 296.571 101.824 285.205 100.258 283.893C99.7113 283.435 98.2555 278.329 96.5935 271.771C94.8946 277.234 93.2494 296.126 92.7156 297.841C92.9048 298.13 93.0713 298.436 93.2133 298.757C94.9727 302.528 96.9332 306.177 99.0843 309.686C99.0843 309.686 111.609 317.992 99.0843 320.178C99.0843 320.178 92.0391 320.615 88.5166 317.992C84.994 315.369 75.6004 311.434 75.6004 310.56C75.6004 309.686 77.9488 296.833 80.2972 298.232L81.8703 294.191L80.2972 293.511L90.2064 243.831C89.972 242.772 89.7998 241.698 89.6907 240.614C89.6907 238.324 84.6228 193.747 83.3331 182.441C77.6572 184.237 72.4692 171.104 72.4692 171.104L71.1826 168.518L69.3381 169.793C69.3381 169.793 67.7725 165.421 65.4241 164.984C63.0757 164.547 58.7703 141.377 58.7703 138.317C58.8062 136.352 59.206 134.417 59.9446 132.634V132.634ZM78.1805 166.885C78.5657 166.202 79.0126 165.565 79.5144 164.984C78.4911 162.007 77.7053 158.935 77.1661 155.804C76.3833 150.995 78.3402 135.257 78.3402 135.257L78.3745 134.188C76.4535 137.005 74.0349 140.76 74.0349 141.814C74.0349 142.323 73.9288 142.825 73.725 143.281C73.5212 143.736 73.2253 144.132 72.8607 144.437L75.2091 153.618C75.2091 153.618 76.7747 157.989 77.1661 160.175C77.4006 161.471 77.5316 162.788 77.5575 164.11L77.0026 164.493L78.1805 166.885Z" fill="#E2E0FF"/>
<path d="M239.128 140.726L237.04 140.201L245.65 113.096L264.242 105.446C264.242 105.446 264.313 105.534 264.444 105.686C266.03 103.972 266.703 101.485 266.984 99.5267C265.489 98.8522 264.146 97.8173 263.05 96.4961C261.955 95.1748 261.133 93.5997 260.646 91.8831C260.158 90.1665 260.015 88.3508 260.228 86.5656C260.441 84.7804 261.004 83.0696 261.877 81.5554C260.345 81.1447 259.798 79.5924 259.284 77.7413C259.602 77.6364 259.927 77.5574 260.255 77.505C260.014 76.9016 259.773 76.2982 259.532 75.6948C259.956 75.6523 260.379 75.6099 260.803 75.5674C260.694 75.0033 260.586 74.4393 260.478 73.8752C261.018 74.2915 261.558 74.7079 262.098 75.1242C261.914 74.532 261.869 73.8975 261.965 73.2802C262.062 72.6629 262.297 72.0832 262.649 71.5955C263.366 70.6277 264.302 69.8911 265.359 69.4618C267.426 68.5534 269.677 68.2989 271.865 68.726C274.053 69.1532 276.094 70.2455 277.762 71.8831L277.879 71.3737C281.184 74.2109 283.346 78.3959 283.892 83.0111C284.41 87.5731 282.448 92.2183 279.898 95.8284C279.919 95.6708 279.942 95.5136 279.966 95.3566C279.855 95.5262 279.741 95.6926 279.624 95.8558L279.31 109.162L280.096 109.914C280.097 109.914 293.269 116.571 293.783 124.521L293.784 124.527C294.575 128.397 294.966 148.507 294.966 148.507H293.883L294.966 156.376L302.012 186.977C302.012 186.977 311.014 200.092 303.186 202.715C298.321 204.345 296.934 198.042 296.58 193.035C296.298 194.276 295.455 195.115 293.792 195.284C293.661 195.297 293.522 195.308 293.387 195.32C297.088 206.004 294.575 240.749 294.575 240.749C296.532 245.121 273.44 275.285 273.44 275.285L272.049 274.457L271.748 275.129C272.522 275.212 273.048 275.285 273.048 275.285V288.837C273.048 288.837 276.571 302.389 271.874 305.012C270.659 305.691 269.391 305.197 268.179 304.095C268.411 308.277 268.743 314.518 268.743 315.941C268.743 318.127 263.655 322.062 263.655 322.062C263.655 322.062 262.48 326.87 253.087 326.87C243.693 326.87 250.738 314.193 250.738 314.193L255.827 301.515C255.827 301.515 256.207 301.723 257.359 300.675L256.947 295.606L254.652 295.832L251.521 244.683C251.521 244.683 248.781 199.218 248.39 192.223C248.298 189.981 248.346 187.734 248.532 185.499L237.04 158.999L239.128 140.726ZM247.607 157.687L248.781 162.258V152.15L247.607 157.687ZM296.471 190.107C296.461 188.505 296.532 187.415 296.532 187.415L288.88 170.321L289.095 175.611C289.095 175.611 295.224 184.269 296.471 190.107ZM278.528 239.437L271.091 210.147L266.786 245.558L267.094 258.431C267.619 257.248 268.04 256.011 268.351 254.738C269.526 249.492 278.528 239.437 278.528 239.437Z" fill="#ECEBFF"/>
<path d="M172.61 309.015C176.278 307.328 183.396 303.714 184.259 301.786C185.122 299.859 189.436 284.92 189.436 284.92L190.548 285.01C190.691 278.224 191.303 251.923 192.241 248.778C192.241 248.778 187.711 207.095 196.771 190.47L198.403 183.103C197.868 180.15 197.936 173.312 198.281 172.158C198.713 170.712 193.319 166.134 194.829 163.243C196.34 160.351 200.438 150.473 200.438 150.473C200.438 150.473 200.007 144.208 205.831 138.425C205.831 138.425 207.533 127.662 215.203 127.502C216.24 125.481 217.692 122.267 217.264 120.836C216.807 119.304 215.059 114.528 214.071 111.854C213.547 111.59 213.043 111.277 212.566 110.918C206.466 107.866 202.165 100.527 202.165 91.9546C202.165 82.7777 207.091 75.0113 213.88 72.4071C213.578 71.5169 213.454 70.5634 213.518 69.614C213.582 68.6646 213.831 67.7424 214.249 66.9126C214.667 66.0828 215.243 65.3657 215.936 64.8118C216.63 64.2579 217.423 63.8809 218.262 63.7072C219.1 63.5336 219.962 63.5677 220.787 63.8071C221.612 64.0464 222.38 64.4852 223.036 65.0925C223.693 65.6997 224.222 66.4606 224.586 67.3213C224.951 68.182 225.141 69.1216 225.145 70.0737C225.518 69.0853 225.667 68.0091 225.577 66.941C225.487 65.873 225.162 64.8464 224.63 63.9529C224.099 63.0594 223.377 62.3268 222.531 61.8205C221.684 61.3143 220.738 61.05 219.778 61.0515C219.4 61.052 219.023 61.0936 218.652 61.1755C219.931 60.4961 221.387 60.361 222.749 60.7954C224.111 61.2298 225.284 62.2039 226.049 63.5352C226.814 64.8665 227.117 66.4636 226.903 68.0272C226.689 69.5908 225.972 71.0136 224.886 72.029C224.819 72.2669 224.74 72.5003 224.649 72.728C231.037 75.607 235.593 83.1285 235.593 91.9546C235.593 100.142 231.671 107.204 226.005 110.482C226.036 113.145 226.627 117.635 229.915 120.371C231.614 119.504 233.971 118.553 235.484 118.984C236.266 118.303 237.446 118.079 239.052 119.872C242.288 123.487 245.092 132.884 245.092 138.666C245.092 144.449 244.445 177.94 244.445 177.94C244.445 177.94 247.897 179.386 245.524 181.555C245.034 182.01 244.419 182.266 243.781 182.278L241.425 201.794C241.425 201.794 242.935 220.588 237.111 220.829C236.654 220.857 236.2 220.732 235.807 220.471L240.131 242.273C240.131 242.273 250.054 249.501 257.82 263.717C261.82 271.039 263.814 275.543 264.81 278.195L266.233 277.21L271.195 287.812C271.195 287.812 282.196 295.281 279.823 300.823C277.451 306.364 275.293 307.81 275.293 307.81L273.783 307.087L270.979 312.87C270.979 312.87 263.644 324.676 251.78 318.653C251.223 317.817 250.922 316.803 250.922 315.761C250.922 314.72 251.223 313.706 251.78 312.87C253.721 309.738 258.683 302.991 258.683 302.991L255.447 284.679L256.117 284.216L235.601 256.489C235.601 256.489 229.561 252.393 227.403 248.778C225.246 245.164 211.871 207.818 211.871 207.818L204.321 246.851C204.321 246.851 204.753 261.067 202.811 270.223C201.753 275.359 201.063 280.581 200.747 285.839L201.301 285.884L200.007 296.727C200.007 296.727 205.615 312.147 201.733 313.352C198.97 314.149 196.158 314.713 193.319 315.038L192.888 313.352C192.888 313.352 176.277 323.472 170.237 316.002C170.237 316.002 168.943 310.701 172.61 309.015ZM231.718 190.71C231.071 191.433 231.286 194.806 231.286 194.806L232.581 204.203L233.873 210.721C234.052 207.642 234.413 204.579 234.954 201.553L235.551 183.545C235.433 183.628 235.304 183.688 235.169 183.723C234.738 183.723 234.954 179.627 234.954 179.627C234.954 179.627 234.702 178.895 234.388 177.741C233.549 180.545 232.525 182.375 231.286 182.759L231.071 185.892C231.071 185.892 233.875 187.337 231.286 187.337C231.136 187.331 230.987 187.306 230.842 187.263L231.071 188.542C231.071 188.542 232.365 189.988 231.718 190.71Z" fill="#E2E0FF"/>
<path d="M154.5 320.235C70.8289 320.235 3 318.736 3 316.887C3 315.037 70.8289 313.538 154.5 313.538C238.171 313.538 306 315.037 306 316.887C306 318.736 238.171 320.235 154.5 320.235Z" fill="#3F3D56"/>
<path d="M154.5 333.63C70.8289 333.63 3 329.882 3 325.258C3 320.635 70.8289 316.887 154.5 316.887C238.171 316.887 306 320.635 306 325.258C306 329.882 238.171 333.63 154.5 333.63Z" fill="#3F3D56"/>
<path d="M150.81 345.78C99.1097 345.78 57.1981 342.087 57.1981 337.532C57.1981 332.977 99.1097 329.285 150.81 329.285C202.511 329.285 244.422 332.977 244.422 337.532C244.422 342.087 202.511 345.78 150.81 345.78Z" fill="#3F3D56"/>
<path d="M76.7705 356.207C65.8516 356.207 57 354.301 57 351.95C57 349.599 65.8516 347.693 76.7705 347.693C87.6895 347.693 96.541 349.599 96.541 351.95C96.541 354.301 87.6895 356.207 76.7705 356.207Z" fill="#3F3D56"/>
<path d="M233.703 347.909C222.785 347.909 213.933 346.003 213.933 343.652C213.933 341.301 222.785 339.395 233.703 339.395C244.622 339.395 253.474 341.301 253.474 343.652C253.474 346.003 244.622 347.909 233.703 347.909Z" fill="#3F3D56"/>
<path d="M136.042 295.496L134.136 310.395L124.608 309.331L125.561 293.899L136.042 295.496Z" fill="#FFB8B8"/>
<path d="M181.3 295.496L183.205 310.395L192.733 309.331L191.781 293.899L181.3 295.496Z" fill="#FFB8B8"/>
<path d="M195.115 141.186C195.115 141.186 203.69 152.36 201.785 169.92C199.879 187.479 196.544 227.387 196.544 227.387L194.162 298.158L178.918 297.093L176.536 236.965L168.913 188.543L148.428 244.947C148.428 244.947 138.424 297.625 137.948 297.625C137.471 297.625 123.656 296.029 123.656 296.029L130.325 233.772C130.325 233.772 140.806 143.314 146.999 141.718C153.192 140.122 195.115 141.186 195.115 141.186Z" fill="#2F2E41"/>
<path d="M123.656 307.203C123.656 307.203 132.231 300.817 135.566 308.267C138.9 315.716 136.042 321.037 136.042 321.037C136.042 321.037 133.184 323.166 134.613 325.294C136.042 327.423 136.518 341.258 124.132 339.129C111.746 337.001 117.939 322.634 117.939 322.634L123.656 307.203Z" fill="#2F2E41"/>
<path d="M193.686 307.203C193.686 307.203 185.111 300.817 181.776 308.267C178.441 315.716 181.3 321.037 181.3 321.037C181.3 321.037 184.158 323.166 182.729 325.294C181.3 327.423 180.823 341.258 193.21 339.129C205.596 337.001 199.403 322.634 199.403 322.634L193.686 307.203Z" fill="#2F2E41"/>
<path d="M183.444 37.6915C183.444 37.6915 179.156 50.9941 182.491 58.4436C185.826 65.893 177.25 74.4067 177.25 74.4067C177.25 74.4067 154.86 61.6362 157.718 55.2509C160.576 48.8657 165.34 40.352 164.388 35.0309L183.444 37.6915Z" fill="#FFB8B8"/>
<path d="M175.107 42.7465C166.687 42.7465 159.862 35.1231 159.862 25.7191C159.862 16.3152 166.687 8.69177 175.107 8.69177C183.526 8.69177 190.351 16.3152 190.351 25.7191C190.351 35.1231 183.526 42.7465 175.107 42.7465Z" fill="#FFB8B8"/>
<path d="M186.064 57.6454C186.064 57.6454 170.768 71.8623 159.36 51.7173L147.476 59.2417L141.282 140.121C141.282 140.121 176.059 162.47 192.733 143.314L190.351 68.2875L186.064 57.6454Z" fill="#D0CDE1"/>
<path d="M181.26 49.6812L202.738 65.6267L195.115 105.003L205.12 166.195L188.922 139.057L181.26 49.6812Z" fill="#575A89"/>
<path d="M162.279 45.2429L157.004 49.1317L135.566 57.6454L138.9 123.626L129.849 166.195L142.712 173.644C142.712 173.644 145.094 153.424 159.862 143.314C174.63 133.204 165.648 48.2714 162.279 45.2429Z" fill="#575A89"/>
<path d="M197.974 148.635L191.78 153.424C191.78 153.424 199.641 162.736 201.07 161.14C201.484 160.696 201.805 160.156 202.011 159.558C202.217 158.961 202.302 158.32 202.261 157.681L203.69 153.956L197.974 148.635Z" fill="#FFB8B8"/>
<path d="M156.804 147.6L158.909 151.296C158.909 151.296 165.102 154.488 163.673 156.617C162.244 158.745 150.334 163.534 147.952 158.745L145.57 153.956L156.804 147.6Z" fill="#FFB8B8"/>
<path d="M199.879 65.0949L203.214 65.627L208.693 105.269C208.693 105.269 210.836 112.452 208.454 129.479C206.072 146.507 203.714 157.595 203.714 157.595L193.21 149.167L197.974 135.333L191.781 84.7827L199.879 65.0949Z" fill="#575A89"/>
<path d="M143.188 56.5812L135.566 57.6454C135.566 57.6454 126.99 67.7554 125.561 78.3975C124.132 89.0396 124.608 119.37 124.608 119.37L146.523 158.213L158.433 148.635L141.759 115.645L149.858 76.2691L143.188 56.5812Z" fill="#575A89"/>
<path d="M160.569 10.3189C162.874 6.1377 166.483 3.05658 170.7 1.66859L173.797 4.43623L172.593 1.20809C173.606 1.03554 174.631 0.969378 175.654 1.01047L178.441 5.01256L177.288 1.14756C179.706 1.48321 182.036 2.37487 184.13 3.76631C186.224 5.15775 188.038 7.01878 189.456 9.23205C193.003 14.9445 193.602 22.8887 190.113 28.6458C189.155 25.3587 187.993 22.2743 187.035 18.9871C186.283 19.1017 185.52 19.1059 184.766 18.9994L183.601 15.9629L183.276 18.871C179.664 18.5196 174.308 17.7481 170.884 17.0412L171.217 14.8103L169.226 16.6641C168.177 16.3944 167.554 16.1498 167.605 15.9629C165.059 20.5477 162.536 23.4762 159.99 28.061C159.023 21.5939 157.317 16.2183 160.569 10.3189Z" fill="#2F2E41"/>
<path d="M161.413 27.4895C160.843 27.4895 160.381 26.4574 160.381 25.1842C160.381 23.911 160.843 22.8788 161.413 22.8788C161.983 22.8788 162.445 23.911 162.445 25.1842C162.445 26.4574 161.983 27.4895 161.413 27.4895Z" fill="#FFB8B8"/>
<path d="M251.869 301.126C251.43 317.919 260.215 324.073 271.239 324.432C271.495 324.44 271.75 324.446 272.004 324.448C272.515 324.452 273.021 324.442 273.523 324.419C283.493 323.957 291.385 318.045 291.793 302.428C292.216 286.267 274.256 265.268 272.909 263.715L272.906 263.713C272.855 263.654 272.829 263.625 272.829 263.625C272.829 263.625 252.309 284.335 251.869 301.126Z" fill="#6C63FF"/>
<path d="M272.033 321.887L265.03 310.255L272.019 323.138L272.004 324.447C272.515 324.452 273.021 324.442 273.523 324.419L273.175 307.594L273.185 307.464L273.172 307.439L273.139 305.849L280.808 293.413L273.148 304.659L273.121 304.995L272.858 292.284L279.482 279.39L272.84 290.05L272.909 263.715L272.909 263.627L272.906 263.713L272.467 284.469L266.43 276.038L272.447 286.257L272.315 297.628L266.76 286.531L272.295 299.3L272.221 305.622L264.143 290.164L272.197 307.828L272.033 321.887Z" fill="#3F3D56"/>
<path d="M65.1532 340.015C64.8955 349.872 70.0518 353.484 76.5227 353.695C76.673 353.7 76.8227 353.703 76.9716 353.704C77.2717 353.707 77.5689 353.701 77.8632 353.688C83.7155 353.416 88.3479 349.946 88.5876 340.78C88.8356 331.293 78.2937 318.968 77.5028 318.056L77.5014 318.055C77.4713 318.02 77.4559 318.003 77.4559 318.003C77.4559 318.003 65.4109 330.159 65.1532 340.015Z" fill="#6C63FF"/>
<path d="M76.9886 352.201L72.8781 345.374L76.9802 352.936L76.9717 353.704C77.2718 353.707 77.5689 353.701 77.8632 353.688L77.6593 343.812L77.6649 343.736L77.6574 343.721L77.6378 342.788L82.1394 335.488L77.6431 342.089L77.6272 342.286L77.4732 334.825L81.3613 327.257L77.4621 333.514L77.5028 318.056L77.5027 318.004L77.5014 318.055L77.2433 330.238L73.6998 325.289L77.2317 331.288L77.1544 337.962L73.8936 331.448L77.1424 338.943L77.0993 342.654L72.3572 333.581L77.085 343.949L76.9886 352.201Z" fill="#3F3D56"/>
</g>
<defs>
<clipPath id="clip0">
<rect width="309" height="356" fill="white" transform="matrix(-1 0 0 1 309 0)"/>
</clipPath>
</defs>
</svg>
