<svg width="418" height="336" viewBox="0 0 418 336" fill="none" xmlns="http://www.w3.org/2000/svg">
<path opacity="0.1" d="M175.144 50.3159C201.941 49.5442 227.463 42.3362 251.817 34.4494C276.171 26.5626 300.348 17.8395 326.503 13.6618C343.325 10.9749 362.562 10.5951 376.116 18.1062C389.162 25.3344 393.374 37.815 395.64 49.3987C397.349 58.1097 398.35 67.2813 393.677 75.4348C390.446 81.0913 384.675 85.8548 380.692 91.277C366.839 110.15 376.629 133.418 391.646 151.842C398.689 160.484 406.86 168.731 412.296 177.931C417.733 187.13 420.237 197.68 415.491 207.053C410.778 216.346 399.546 223.34 387.377 228.257C362.663 238.237 333.539 241.093 305.142 242.714C242.281 246.293 179.081 244.734 116.051 243.19C92.7269 242.617 69.2976 242.035 46.3489 239.029C33.6064 237.36 20.4518 234.714 11.211 228.322C-0.533966 220.209 -3.44196 206.468 4.42569 196.294C17.6246 179.227 54.1035 174.989 63.3484 156.674C68.4292 146.594 63.2111 135.361 55.8321 126.012C39.9998 105.956 13.4606 88.3599 12.0632 65.4349C11.106 49.6775 23.8606 33.9201 43.5863 26.4697C64.2612 18.6597 92.9329 19.6415 108.208 32.5706C123.883 45.8796 151.484 51.0149 175.144 50.3159Z" fill="#6C63FF"/>
<path opacity="0.1" d="M242.129 336C177.274 336 124.699 330.696 124.699 324.154C124.699 317.611 177.274 312.307 242.129 312.307C306.983 312.307 359.558 317.611 359.558 324.154C359.558 330.696 306.983 336 242.129 336Z" fill="#6C63FF"/>
<path d="M349.554 322.869C349.554 322.869 354.764 293.338 374.102 278.704C382.216 272.562 388.153 264.211 390.746 254.7C391.966 250.193 392.748 245.579 393.08 240.922" stroke="#535461" stroke-width="2" stroke-miterlimit="10"/>
<path d="M405.205 231.63C403.589 234.793 392.794 241.197 392.794 241.197C392.794 241.197 391.437 229.234 393.064 226.066C394.692 222.898 398.719 221.577 402.079 223.112C405.439 224.648 406.833 228.462 405.205 231.63Z" fill="#6C63FF"/>
<path d="M406.235 253.767C403.044 255.589 390.306 255.427 390.306 255.427C390.306 255.427 396.053 244.688 399.231 242.866C402.41 241.044 406.566 242.005 408.497 245.015C410.427 248.025 409.421 251.944 406.235 253.767Z" fill="#6C63FF"/>
<path d="M390.399 283.552C386.675 283.605 375.766 277.391 375.766 277.391C375.766 277.391 386.465 270.861 390.193 270.805C393.92 270.748 396.986 273.56 397.059 277.079C397.131 280.599 394.126 283.487 390.399 283.552Z" fill="#6C63FF"/>
<path d="M373.048 303.524C369.388 304.174 357.522 299.786 357.522 299.786C357.522 299.786 366.901 291.633 370.556 290.994C374.211 290.356 377.745 292.611 378.431 296.085C379.118 299.56 376.711 302.877 373.048 303.524Z" fill="#6C63FF"/>
<path d="M377.244 250.199C378.516 253.508 388.553 260.926 388.553 260.926C388.553 260.926 391.21 249.161 389.938 245.852C388.666 242.542 384.793 240.833 381.291 242.033C377.789 243.233 375.972 246.894 377.244 250.199Z" fill="#6C63FF"/>
<path d="M357.264 273.811C359.526 276.611 371.448 280.853 371.448 280.853C371.448 280.853 370.237 268.873 367.991 266.078C366.857 264.721 365.252 263.843 363.499 263.618C361.745 263.393 359.972 263.839 358.532 264.865C357.833 265.347 357.242 265.969 356.795 266.691C356.349 267.413 356.057 268.219 355.937 269.06C355.818 269.901 355.875 270.757 356.103 271.574C356.331 272.392 356.727 273.154 357.264 273.811Z" fill="#6C63FF"/>
<path d="M341.181 299.277C342.91 302.396 353.9 308.481 353.9 308.481C353.9 308.481 354.865 296.485 353.136 293.366C351.408 290.247 347.332 289.043 344.029 290.675C340.725 292.308 339.457 296.158 341.181 299.277Z" fill="#6C63FF"/>
<path opacity="0.25" d="M405.205 231.63C403.589 234.793 392.794 241.197 392.794 241.197C392.794 241.197 391.437 229.234 393.064 226.066C394.692 222.898 398.719 221.577 402.079 223.112C405.439 224.648 406.833 228.462 405.205 231.63Z" fill="black"/>
<path opacity="0.25" d="M406.235 253.767C403.044 255.589 390.306 255.427 390.306 255.427C390.306 255.427 396.053 244.688 399.231 242.866C402.41 241.044 406.566 242.005 408.497 245.015C410.427 248.025 409.421 251.944 406.235 253.767Z" fill="black"/>
<path opacity="0.25" d="M390.399 283.552C386.675 283.605 375.766 277.391 375.766 277.391C375.766 277.391 386.465 270.861 390.193 270.805C393.92 270.748 396.986 273.56 397.059 277.079C397.131 280.599 394.126 283.487 390.399 283.552Z" fill="black"/>
<path opacity="0.25" d="M373.048 303.524C369.388 304.174 357.522 299.786 357.522 299.786C357.522 299.786 366.901 291.633 370.556 290.994C374.211 290.356 377.745 292.611 378.431 296.085C379.118 299.56 376.711 302.877 373.048 303.524Z" fill="black"/>
<path opacity="0.25" d="M377.244 250.199C378.516 253.508 388.553 260.926 388.553 260.926C388.553 260.926 391.21 249.161 389.938 245.852C388.666 242.542 384.793 240.833 381.291 242.033C377.789 243.233 375.972 246.894 377.244 250.199Z" fill="black"/>
<path opacity="0.25" d="M357.264 273.811C359.526 276.611 371.448 280.853 371.448 280.853C371.448 280.853 370.237 268.873 367.991 266.078C366.857 264.721 365.252 263.843 363.499 263.618C361.745 263.393 359.972 263.839 358.532 264.865C357.833 265.347 357.242 265.969 356.795 266.691C356.349 267.413 356.057 268.219 355.937 269.06C355.818 269.901 355.875 270.757 356.103 271.574C356.331 272.392 356.727 273.154 357.264 273.811Z" fill="black"/>
<path opacity="0.25" d="M341.181 299.277C342.91 302.396 353.9 308.481 353.9 308.481C353.9 308.481 354.865 296.485 353.136 293.366C351.408 290.247 347.332 289.043 344.029 290.675C340.725 292.308 339.457 296.158 341.181 299.277Z" fill="black"/>
<path d="M350.208 322.093C350.208 322.093 342.304 293.1 353.702 272.316C358.484 263.597 360.329 253.69 358.617 244.001C357.795 239.394 356.53 234.878 354.841 230.514" stroke="#535461" stroke-width="2" stroke-miterlimit="10"/>
<path d="M361.941 217.379C361.812 220.894 354.699 230.878 354.699 230.878C354.699 230.878 348.326 220.458 348.455 216.939C348.584 213.42 351.706 210.668 355.43 210.789C359.154 210.911 362.074 213.86 361.941 217.379Z" fill="#6C63FF"/>
<path d="M372.377 237.225C370.245 240.11 358.532 244.837 358.532 244.837C358.532 244.837 359.178 232.821 361.311 229.933C362.389 228.533 363.956 227.593 365.698 227.3C367.44 227.007 369.228 227.383 370.705 228.353C371.423 228.804 372.04 229.398 372.517 230.099C372.994 230.799 373.321 231.591 373.478 232.424C373.635 233.257 373.619 234.113 373.429 234.94C373.24 235.766 372.881 236.544 372.377 237.225Z" fill="#6C63FF"/>
<path d="M370.681 270.506C367.296 271.981 354.655 270.477 354.655 270.477C354.655 270.477 361.638 260.409 365.023 258.934C368.407 257.459 372.414 258.853 373.977 262.049C375.54 265.245 374.061 269.031 370.681 270.506Z" fill="#6C63FF"/>
<path d="M363.391 295.415C360.317 297.411 347.591 297.94 347.591 297.94C347.591 297.94 352.672 286.906 355.741 284.914C357.221 283.95 359.009 283.581 360.749 283.88C362.489 284.18 364.052 285.126 365.123 286.53C365.627 287.215 365.983 287.998 366.169 288.828C366.355 289.658 366.367 290.517 366.204 291.352C366.041 292.187 365.707 292.979 365.223 293.678C364.739 294.378 364.115 294.969 363.391 295.415Z" fill="#6C63FF"/>
<path d="M344.344 245.06C346.928 247.597 359.287 250.542 359.287 250.542C359.287 250.542 356.666 238.765 354.085 236.227C352.808 235.003 351.117 234.305 349.348 234.272C347.58 234.239 345.863 234.874 344.542 236.05C343.906 236.61 343.394 237.295 343.037 238.063C342.68 238.831 342.486 239.665 342.467 240.511C342.449 241.358 342.606 242.199 342.929 242.982C343.252 243.765 343.734 244.472 344.344 245.06Z" fill="#6C63FF"/>
<path d="M336.226 274.292C339.493 275.985 352.211 275.302 352.211 275.302C352.211 275.302 345.979 264.797 342.712 263.116C339.445 261.435 335.341 262.554 333.552 265.641C331.763 268.728 332.942 272.599 336.226 274.292Z" fill="#6C63FF"/>
<path d="M332.433 303.73C335.353 305.919 348.011 307.277 348.011 307.277C348.011 307.277 343.746 295.936 340.826 293.746C339.406 292.692 337.642 292.213 335.885 292.404C334.127 292.595 332.507 293.442 331.347 294.776C330.798 295.422 330.389 296.174 330.145 296.985C329.902 297.797 329.829 298.65 329.931 299.491C330.033 300.332 330.308 301.143 330.738 301.872C331.169 302.602 331.746 303.234 332.433 303.73Z" fill="#6C63FF"/>
<g opacity="0.1">
<path opacity="0.1" d="M84.8803 90.1605C84.4441 89.0373 85.5911 87.9383 85.7405 86.7343C85.8925 87.0739 85.9577 87.446 85.9304 87.8171C85.8536 88.7221 85.1872 89.5665 85.0095 90.4069C84.9594 90.3287 84.9162 90.2462 84.8803 90.1605Z" fill="black"/>
<path opacity="0.1" d="M65.0496 103.033C65.4777 101.15 65.3525 99.1543 65.7887 97.2675C66.2248 95.3807 67.5698 93.409 69.3994 93.3766C70.2071 93.3766 71.1119 93.6675 71.6813 93.0777C72.0287 92.7221 72.0852 92.1564 72.3558 91.7241C73.6644 89.6029 77.6467 90.6777 79.2784 91.7645C81.7017 93.3807 85.0782 96.7867 88.2123 96.019C88.3618 96.3786 88.4991 96.7463 88.6162 97.122C85.4215 98.1241 81.9602 94.5968 79.4561 92.9282C77.8406 91.8453 73.8421 90.7706 72.5335 92.8918C72.275 93.3241 72.2064 93.8857 71.8631 94.2413C71.2936 94.8352 70.3687 94.5281 69.5811 94.5443C67.7475 94.5766 66.4106 96.516 65.9664 98.4352C65.5221 100.354 65.6675 102.387 65.2111 104.302C65.2405 103.872 65.1857 103.441 65.0496 103.033Z" fill="black"/>
<path opacity="0.1" d="M56.0671 100.795C56.3903 101.74 57.2425 102.613 58.1633 102.411C59.0842 102.209 59.5325 101.171 60.2191 100.512C60.6453 100.112 61.1849 99.8548 61.7634 99.7745C62.342 99.6942 62.9312 99.7951 63.4502 100.063C63.9483 100.36 64.3581 100.785 64.6372 101.294C64.9163 101.802 65.0544 102.376 65.0374 102.956C64.7954 102.227 64.2938 101.611 63.6279 101.227C63.1096 100.955 62.5192 100.853 61.9396 100.934C61.36 101.015 60.8205 101.276 60.3968 101.68C59.7061 102.334 59.2376 103.385 58.337 103.575C57.4363 103.764 56.568 102.9 56.2408 101.958C56.0707 101.399 55.961 100.824 55.9137 100.241C55.9529 100.429 56.0042 100.614 56.0671 100.795Z" fill="black"/>
<path opacity="0.1" d="M53.2561 92.6493C53.9266 94.423 55.1463 95.9503 55.5502 97.8169C55.631 98.1927 55.6794 98.5765 55.7239 98.9644C55.32 97.1058 54.1083 95.5826 53.4338 93.8129C53.1361 93.0168 52.9499 92.1833 52.8805 91.3362C52.9725 91.7827 53.098 92.2217 53.2561 92.6493Z" fill="black"/>
</g>
<path d="M139.603 135.93C139.522 135.93 139.457 135.865 139.457 135.784C139.457 135.704 139.522 135.639 139.603 135.639C139.683 135.639 139.748 135.704 139.748 135.784C139.748 135.865 139.683 135.93 139.603 135.93Z" fill="#E6E8EC"/>
<path d="M216.24 86.6211L321.859 155.17L252.932 279.532C252.61 280.113 252.171 280.622 251.643 281.025C251.115 281.429 250.509 281.718 249.863 281.875L187.41 297.116C186.34 297.375 185.214 297.259 184.219 296.787C183.223 296.316 182.42 295.518 181.942 294.526L150.964 230.143L117.013 184.741L197.58 89.3888C199.822 86.7366 202.953 84.9926 206.388 84.4832C209.822 83.9738 213.325 84.7339 216.24 86.6211Z" fill="#DCDFED"/>
<path opacity="0.1" d="M115.939 185.279L116.238 185.683L136.125 212.28L136.485 212.761L149.89 230.688L176.384 285.762L177.127 287.302L180.867 295.071C181.346 296.065 182.151 296.865 183.148 297.336C184.144 297.807 185.273 297.922 186.344 297.661L248.797 282.413C249.443 282.256 250.049 281.967 250.577 281.563C251.106 281.16 251.545 280.651 251.866 280.069L257.872 269.253L258.95 267.306L302.299 189.06L302.671 188.394L320.789 155.707L318.6 154.285L302.004 143.518L301.621 143.267L266.673 120.584L264.467 119.154L215.173 87.1586C212.259 85.2677 208.754 84.5052 205.318 85.014C201.881 85.5227 198.748 87.2679 196.506 89.9222L159.752 133.437L158.137 135.376L131.46 166.948L131.315 167.121L117.902 182.992L116.214 184.992L115.939 185.279Z" fill="black"/>
<path opacity="0.1" d="M132.349 166.584L135.604 189.21L136.586 196.038L137.147 210.583L137.191 211.719L140.111 287.718C140.14 288.423 140.322 289.113 140.646 289.74C140.97 290.367 141.428 290.915 141.987 291.345C142.546 291.776 143.192 292.078 143.881 292.231C144.569 292.384 145.283 292.384 145.972 292.231L177.451 285.201L177.79 285.124L258.522 267.1L260.005 266.769L304.387 256.854L303.37 188.523L303.337 186.24L303.03 165.558L302.691 142.73L267.743 120.047L265.538 118.617C233.122 121.942 190.011 128.338 160.806 132.899L159.191 134.839L132.535 166.41L132.349 166.584Z" fill="black"/>
<path d="M128.661 139.756L132.494 166.422L136.008 190.842L136.989 197.654L137.551 212.2L140.515 289.334C140.543 290.039 140.726 290.729 141.05 291.356C141.374 291.983 141.832 292.531 142.391 292.961C142.95 293.392 143.596 293.694 144.285 293.847C144.973 294 145.687 294 146.376 293.847L178.194 286.74L258.926 268.716L304.791 258.47L303.741 187.856L303.434 167.174L303.075 142.98L302.707 118.096C295.122 117.736 282.642 118.548 267.743 120.047C234.382 123.397 188.905 130.172 159.171 134.839C140.964 137.695 128.661 139.756 128.661 139.756Z" fill="#6C63FF"/>
<path opacity="0.1" d="M118.936 182.454L136.008 190.83L223.138 233.577L303.434 167.19L319.666 153.748L321.855 155.17L303.737 187.856L304.787 258.47L258.922 268.716L252.928 279.532C252.607 280.114 252.168 280.623 251.64 281.026C251.111 281.429 250.505 281.719 249.859 281.875L187.406 297.116C186.337 297.374 185.211 297.257 184.217 296.786C183.223 296.315 182.42 295.517 181.942 294.526L178.202 286.756L146.384 293.863C145.695 294.016 144.981 294.016 144.293 293.863C143.604 293.71 142.958 293.408 142.399 292.977C141.84 292.547 141.382 291.999 141.058 291.372C140.734 290.745 140.552 290.055 140.523 289.35L137.559 212.216L117.312 185.145L117.256 184.462L118.936 182.454Z" fill="black"/>
<path d="M321.859 155.17L329.061 278.534C329.127 279.676 328.786 280.804 328.097 281.717C327.408 282.63 326.416 283.267 325.3 283.516L134.053 326C133.383 326.147 132.688 326.149 132.017 326.005C131.346 325.862 130.713 325.576 130.161 325.168C129.609 324.76 129.151 324.238 128.817 323.638C128.483 323.038 128.281 322.373 128.225 321.689L117.017 184.741L223.138 236.809L321.859 155.17Z" fill="#DCDFED"/>
<path opacity="0.1" d="M327.744 281.358L228.388 220.038C226.917 219.145 225.178 218.802 223.478 219.068C221.778 219.334 220.227 220.193 219.099 221.492L130.172 325.245C129.849 325.616 129.691 325.35 130.172 325.245L327.744 281.358C328.309 281.233 328.237 281.653 327.744 281.358Z" fill="black"/>
<path d="M327.033 281.257L228.704 221.836C227.149 220.896 225.313 220.536 223.519 220.819C221.725 221.101 220.088 222.008 218.897 223.379L130.774 324.764C130.628 324.932 130.539 325.143 130.519 325.365C130.499 325.587 130.55 325.81 130.664 326.002C130.778 326.194 130.949 326.345 131.154 326.434C131.358 326.522 131.586 326.545 131.804 326.497L326.714 283.201C326.922 283.156 327.111 283.049 327.257 282.895C327.404 282.742 327.5 282.547 327.535 282.338C327.569 282.128 327.54 281.913 327.45 281.72C327.361 281.527 327.215 281.366 327.033 281.257Z" fill="#E3E5F1"/>
</svg>
