<svg width="72" height="72" viewBox="0 0 72 72" fill="none" xmlns="http://www.w3.org/2000/svg">
<path d="M54.2081 71.2444C54.2081 71.2444 49.4949 52.4734 32.0014 43.1713C24.6612 39.2676 19.2904 33.9592 16.9448 27.9136C15.8409 25.0491 15.1337 22.1162 14.833 19.156" stroke="#A9A8BF" stroke-width="2" stroke-miterlimit="10"/>
<path d="M3.86479 13.2491C5.32624 15.26 15.0924 19.3306 15.0924 19.3306C15.0924 19.3306 16.32 11.7261 14.8476 9.71267C13.3752 7.6992 9.7325 6.8594 6.69269 7.83532C3.65288 8.81123 2.39238 11.2356 3.86479 13.2491Z" fill="#E2E0FF"/>
<path d="M2.93319 27.3204C5.81955 28.4786 17.3431 28.3759 17.3431 28.3759C17.3431 28.3759 12.144 21.5496 9.26857 20.3913C6.39317 19.2331 2.63359 19.8443 0.887162 21.7576C-0.859268 23.6709 0.0504855 26.1621 2.93319 27.3204Z" fill="#E2E0FF"/>
<path d="M17.259 46.2531C20.6276 46.2865 30.496 42.3366 30.496 42.3366C30.496 42.3366 20.8176 38.1864 17.4453 38.1504C14.073 38.1145 11.2999 39.9019 11.2341 42.1388C11.1684 44.3757 13.8867 46.212 17.259 46.2531Z" fill="#E2E0FF"/>
<path d="M32.955 58.948C36.2651 59.3615 46.9995 56.5724 46.9995 56.5724C46.9995 56.5724 38.5158 51.3897 35.2092 50.9839C31.9027 50.5782 28.7058 52.0112 28.0847 54.2199C27.4636 56.4286 29.6411 58.5371 32.955 58.948Z" fill="#E2E0FF"/>
<path d="M29.1589 25.0526C28.008 27.156 18.9288 31.8712 18.9288 31.8712C18.9288 31.8712 16.5247 24.3926 17.6756 22.2892C18.8265 20.1858 22.3303 19.0995 25.498 19.8622C28.6657 20.625 30.3098 22.9518 29.1589 25.0526Z" fill="#E2E0FF"/>
<path d="M47.2333 40.0613C45.1873 41.841 34.4018 44.5376 34.4018 44.5376C34.4018 44.5376 35.4979 36.9229 37.5293 35.1457C38.5555 34.2835 40.0067 33.7252 41.593 33.5823C43.1793 33.4395 44.7839 33.7227 46.0861 34.3753C46.7183 34.6815 47.2533 35.0765 47.6573 35.5354C48.0613 35.9943 48.3255 36.5071 48.4333 37.0415C48.5411 37.5758 48.4901 38.12 48.2836 38.6398C48.0771 39.1595 47.7194 39.6436 47.2333 40.0613Z" fill="#E2E0FF"/>
<path d="M61.782 56.2487C60.2183 58.2313 50.2768 62.0991 50.2768 62.0991C50.2768 62.0991 49.4036 54.4741 50.9673 52.4914C52.5311 50.5087 56.2176 49.7434 59.2062 50.781C62.1949 51.8185 63.3421 54.266 61.782 56.2487Z" fill="#E2E0FF"/>
<path opacity="0.25" d="M3.86479 13.2491C5.32624 15.26 15.0924 19.3306 15.0924 19.3306C15.0924 19.3306 16.32 11.7261 14.8476 9.71267C13.3752 7.6992 9.7325 6.8594 6.69269 7.83532C3.65288 8.81123 2.39238 11.2356 3.86479 13.2491Z" fill="black"/>
<path opacity="0.25" d="M2.93319 27.3204C5.81955 28.4786 17.3431 28.3759 17.3431 28.3759C17.3431 28.3759 12.144 21.5496 9.26857 20.3913C6.39317 19.2331 2.63359 19.8443 0.887162 21.7576C-0.859268 23.6709 0.0504855 26.1621 2.93319 27.3204Z" fill="black"/>
<path opacity="0.25" d="M17.259 46.2531C20.6276 46.2865 30.496 42.3366 30.496 42.3366C30.496 42.3366 20.8176 38.1864 17.4453 38.1504C14.073 38.1145 11.2999 39.9019 11.2341 42.1388C11.1684 44.3757 13.8867 46.212 17.259 46.2531Z" fill="black"/>
<path opacity="0.25" d="M32.955 58.948C36.2651 59.3615 46.9995 56.5724 46.9995 56.5724C46.9995 56.5724 38.5158 51.3897 35.2092 50.9839C31.9027 50.5782 28.7058 52.0112 28.0847 54.2199C27.4636 56.4286 29.6411 58.5371 32.955 58.948Z" fill="black"/>
<path opacity="0.25" d="M29.1589 25.0526C28.008 27.156 18.9288 31.8712 18.9288 31.8712C18.9288 31.8712 16.5247 24.3926 17.6756 22.2892C18.8265 20.1858 22.3303 19.0995 25.498 19.8622C28.6657 20.625 30.3098 22.9518 29.1589 25.0526Z" fill="black"/>
<path opacity="0.25" d="M47.2333 40.0613C45.1873 41.841 34.4018 44.5376 34.4018 44.5376C34.4018 44.5376 35.4979 36.9229 37.5293 35.1457C38.5555 34.2835 40.0067 33.7252 41.593 33.5823C43.1793 33.4395 44.7839 33.7227 46.0861 34.3753C46.7183 34.6815 47.2533 35.0765 47.6573 35.5354C48.0613 35.9943 48.3255 36.5071 48.4333 37.0415C48.5411 37.5758 48.4901 38.12 48.2836 38.6398C48.0771 39.1595 47.7194 39.6436 47.2333 40.0613Z" fill="black"/>
<path opacity="0.25" d="M61.782 56.2487C60.2183 58.2313 50.2768 62.0991 50.2768 62.0991C50.2768 62.0991 49.4036 54.4741 50.9673 52.4914C52.5311 50.5087 56.2176 49.7434 59.2062 50.781C62.1949 51.8185 63.3421 54.266 61.782 56.2487Z" fill="black"/>
<path d="M53.6162 70.7513C53.6162 70.7513 60.7664 52.3218 50.4559 39.111C46.13 33.5688 44.4603 27.2715 46.0094 21.113C46.7531 18.1848 47.8971 15.3139 49.4255 12.5403" stroke="#E2E0FF" stroke-width="2" stroke-miterlimit="10"/>
<path d="M43.0024 4.1912C43.1193 6.42554 49.5533 12.7716 49.5533 12.7716C49.5533 12.7716 55.3187 6.14818 55.2018 3.91127C55.0849 1.67436 52.2607 -0.0745954 48.892 0.00245087C45.5234 0.0794972 42.8818 1.95429 43.0024 4.1912Z" fill="#E2E0FF"/>
<path d="M33.5615 16.8061C35.4906 18.6398 46.0861 21.6446 46.0861 21.6446C46.0861 21.6446 45.5015 14.0068 43.5724 12.1705C42.5967 11.281 41.1791 10.6834 39.6033 10.4972C38.0276 10.311 36.4099 10.55 35.0741 11.1663C34.4249 11.4529 33.867 11.8307 33.4353 12.276C33.0036 12.7213 32.7075 13.2245 32.5654 13.754C32.4234 14.2835 32.4386 14.828 32.61 15.3532C32.7814 15.8784 33.1053 16.373 33.5615 16.8061Z" fill="#E2E0FF"/>
<path d="M35.096 37.9606C38.1577 38.898 49.5935 37.9427 49.5935 37.9427C49.5935 37.9427 43.2764 31.5427 40.2147 30.6053C37.153 29.6679 33.5286 30.5539 32.1146 32.5854C30.7007 34.6168 32.0379 37.0232 35.096 37.9606Z" fill="#E2E0FF"/>
<path d="M41.6908 53.7935C44.4712 55.0622 55.9837 55.3986 55.9837 55.3986C55.9837 55.3986 51.3875 48.3848 48.6107 47.1187C47.2725 46.5059 45.6543 46.2713 44.0803 46.4618C42.5064 46.6523 41.093 47.2539 40.1234 48.146C39.6678 48.5816 39.3458 49.079 39.1775 49.6066C39.0092 50.1342 38.9983 50.6806 39.1456 51.2113C39.2929 51.742 39.5951 52.2454 40.0332 52.6899C40.4713 53.1343 41.0357 53.5101 41.6908 53.7935Z" fill="#E2E0FF"/>
<path d="M58.9213 21.7859C56.583 23.3988 45.4029 25.271 45.4029 25.271C45.4029 25.271 47.7741 17.7847 50.1088 16.1718C51.2641 15.3935 52.7941 14.9497 54.3941 14.9288C55.994 14.9078 57.5465 15.3113 58.7423 16.0588C59.3169 16.4147 59.7804 16.8504 60.1033 17.3386C60.4262 17.8267 60.6017 18.3566 60.6185 18.8948C60.6353 19.433 60.4932 19.9678 60.201 20.4654C59.9089 20.963 59.4732 21.4127 58.9213 21.7859Z" fill="#E2E0FF"/>
<path d="M66.265 40.3669C63.3093 41.443 51.804 41.0089 51.804 41.0089C51.804 41.0089 57.4416 34.3316 60.3973 33.2632C63.3531 32.1948 67.0652 32.9062 68.6837 34.8683C70.3023 36.8304 69.2354 39.2908 66.265 40.3669Z" fill="#E2E0FF"/>
<path d="M69.6958 59.0787C67.0542 60.4707 55.6038 61.3336 55.6038 61.3336C55.6038 61.3336 59.462 54.1246 62.1035 52.7327C63.3876 52.0629 64.9839 51.7582 66.5735 51.8796C68.1632 52.001 69.6291 52.5395 70.6786 53.3876C71.1748 53.7979 71.5448 54.276 71.7653 54.7917C71.9857 55.3075 72.0519 55.8497 71.9595 56.3844C71.8672 56.919 71.6184 57.4344 71.2288 57.8981C70.8392 58.3618 70.3172 58.7638 69.6958 59.0787Z" fill="#E2E0FF"/>
</svg>
